<mxfile host="app.diagrams.net" modified="2022-05-23T19:17:07.138Z" agent="5.0 (Macintosh; Intel Mac OS X 10_15_7) AppleWebKit/605.1.15 (KHTML, like Gecko) Version/15.2 Safari/605.1.15" etag="2WCyC-X02i75AZI0FGjq" version="18.1.1" type="github">
  <diagram id="uq2SqN55Rye5webqZwm4" name="Page-1">
    <mxGraphModel dx="1113" dy="799" grid="1" gridSize="10" guides="1" tooltips="1" connect="1" arrows="1" fold="1" page="1" pageScale="1" pageWidth="827" pageHeight="1169" math="0" shadow="0">
      <root>
        <mxCell id="0" />
        <mxCell id="1" parent="0" />
        <mxCell id="q0zf_KYt9hu8evr4kqVK-6" value="" style="edgeStyle=orthogonalEdgeStyle;rounded=0;orthogonalLoop=1;jettySize=auto;html=1;" edge="1" parent="1" source="q0zf_KYt9hu8evr4kqVK-4" target="jgTODyjwuIUs-US6e2MA-3">
          <mxGeometry relative="1" as="geometry" />
        </mxCell>
        <mxCell id="q0zf_KYt9hu8evr4kqVK-7" style="edgeStyle=orthogonalEdgeStyle;rounded=0;orthogonalLoop=1;jettySize=auto;html=1;exitX=0.5;exitY=1;exitDx=0;exitDy=0;entryX=0.5;entryY=0;entryDx=0;entryDy=0;fontSize=16;" edge="1" parent="1" source="q0zf_KYt9hu8evr4kqVK-4" target="jgTODyjwuIUs-US6e2MA-3">
          <mxGeometry relative="1" as="geometry" />
        </mxCell>
        <mxCell id="q0zf_KYt9hu8evr4kqVK-8" style="edgeStyle=orthogonalEdgeStyle;rounded=0;orthogonalLoop=1;jettySize=auto;html=1;exitX=0.5;exitY=1;exitDx=0;exitDy=0;fontSize=16;" edge="1" parent="1" source="q0zf_KYt9hu8evr4kqVK-4">
          <mxGeometry relative="1" as="geometry">
            <mxPoint x="420.3333333333335" y="140" as="targetPoint" />
          </mxGeometry>
        </mxCell>
        <mxCell id="q0zf_KYt9hu8evr4kqVK-11" value="" style="edgeStyle=orthogonalEdgeStyle;rounded=0;orthogonalLoop=1;jettySize=auto;html=1;fontSize=19;" edge="1" parent="1" source="q0zf_KYt9hu8evr4kqVK-4" target="jgTODyjwuIUs-US6e2MA-3">
          <mxGeometry relative="1" as="geometry" />
        </mxCell>
        <mxCell id="q0zf_KYt9hu8evr4kqVK-4" value="&lt;sup style=&quot;line-height: 1.6;&quot;&gt;&lt;font style=&quot;font-size: 16px;&quot;&gt;main&lt;/font&gt;&lt;/sup&gt;" style="rounded=0;whiteSpace=wrap;html=1;fillColor=#F8EBFF;strokeColor=#9673a6;align=left;" vertex="1" parent="1">
          <mxGeometry x="120" y="110" width="600" height="20" as="geometry" />
        </mxCell>
        <mxCell id="jgTODyjwuIUs-US6e2MA-1" value="header nav" style="rounded=0;whiteSpace=wrap;html=1;fillColor=#f8cecc;strokeColor=#b85450;" parent="1" vertex="1">
          <mxGeometry x="120" y="50" width="600" height="30" as="geometry" />
        </mxCell>
        <mxCell id="jgTODyjwuIUs-US6e2MA-2" value="header &amp;nbsp;bottom" style="rounded=0;whiteSpace=wrap;html=1;fillColor=#e1d5e7;strokeColor=#9673a6;" parent="1" vertex="1">
          <mxGeometry x="120" y="80" width="600" height="30" as="geometry" />
        </mxCell>
        <mxCell id="jgTODyjwuIUs-US6e2MA-3" value="&lt;font style=&quot;font-size: 19px;&quot;&gt;section hero&lt;/font&gt;" style="rounded=0;whiteSpace=wrap;html=1;fillColor=#FF3399;strokeColor=#FF3399;" parent="1" vertex="1">
          <mxGeometry x="120" y="130" width="600" height="150" as="geometry" />
        </mxCell>
        <mxCell id="q0zf_KYt9hu8evr4kqVK-1" value="&lt;span style=&quot;caret-color: rgb(0, 0, 0); color: rgb(0, 0, 0); font-family: Helvetica; font-size: 12px; font-style: normal; font-variant-caps: normal; font-weight: normal; letter-spacing: normal; text-align: center; text-indent: 0px; text-transform: none; word-spacing: 0px; -webkit-text-stroke-width: 0px; background-color: rgb(248, 249, 250); text-decoration: none; float: none; display: inline !important;&quot;&gt;hero content&lt;/span&gt;" style="ellipse;whiteSpace=wrap;html=1;aspect=fixed;" vertex="1" parent="1">
          <mxGeometry x="150" y="160" width="100" height="100" as="geometry" />
        </mxCell>
        <mxCell id="q0zf_KYt9hu8evr4kqVK-9" value="" style="rounded=0;whiteSpace=wrap;html=1;fontSize=19;fillColor=#FFFF33;fontColor=#000000;strokeColor=#B09500;" vertex="1" parent="1">
          <mxGeometry x="190" y="105" width="50" height="45" as="geometry" />
        </mxCell>
        <mxCell id="q0zf_KYt9hu8evr4kqVK-12" value="" style="shape=umlActor;verticalLabelPosition=bottom;verticalAlign=top;html=1;outlineConnect=0;fontSize=19;fillColor=#FFFF33;" vertex="1" parent="1">
          <mxGeometry x="211" y="117" width="10" height="20" as="geometry" />
        </mxCell>
        <mxCell id="q0zf_KYt9hu8evr4kqVK-19" value="" style="rounded=0;whiteSpace=wrap;html=1;fontSize=19;fillColor=#FFFF33;fontColor=#000000;strokeColor=#B09500;" vertex="1" parent="1">
          <mxGeometry x="250" y="104.5" width="50" height="45" as="geometry" />
        </mxCell>
        <mxCell id="q0zf_KYt9hu8evr4kqVK-20" value="" style="shape=umlActor;verticalLabelPosition=bottom;verticalAlign=top;html=1;outlineConnect=0;fontSize=19;fillColor=#FFFF33;" vertex="1" parent="1">
          <mxGeometry x="271" y="119.5" width="10" height="17" as="geometry" />
        </mxCell>
        <mxCell id="q0zf_KYt9hu8evr4kqVK-21" value="" style="rounded=0;whiteSpace=wrap;html=1;fontSize=19;fillColor=#FFFF33;fontColor=#000000;strokeColor=#B09500;" vertex="1" parent="1">
          <mxGeometry x="310" y="104.5" width="50" height="45" as="geometry" />
        </mxCell>
        <mxCell id="q0zf_KYt9hu8evr4kqVK-22" value="" style="shape=umlActor;verticalLabelPosition=bottom;verticalAlign=top;html=1;outlineConnect=0;fontSize=19;fillColor=#FFFF33;" vertex="1" parent="1">
          <mxGeometry x="331" y="116.5" width="10" height="20" as="geometry" />
        </mxCell>
        <mxCell id="q0zf_KYt9hu8evr4kqVK-23" value="" style="rounded=0;whiteSpace=wrap;html=1;fontSize=19;fillColor=#FFFF33;fontColor=#000000;strokeColor=#B09500;" vertex="1" parent="1">
          <mxGeometry x="370" y="104" width="50" height="45" as="geometry" />
        </mxCell>
        <mxCell id="q0zf_KYt9hu8evr4kqVK-24" value="" style="shape=umlActor;verticalLabelPosition=bottom;verticalAlign=top;html=1;outlineConnect=0;fontSize=19;fillColor=#FFFF33;" vertex="1" parent="1">
          <mxGeometry x="391" y="116" width="10" height="20" as="geometry" />
        </mxCell>
        <mxCell id="q0zf_KYt9hu8evr4kqVK-25" value="" style="rounded=0;whiteSpace=wrap;html=1;fontSize=19;fillColor=#FFFF33;fontColor=#000000;strokeColor=#B09500;" vertex="1" parent="1">
          <mxGeometry x="430" y="104" width="50" height="45" as="geometry" />
        </mxCell>
        <mxCell id="q0zf_KYt9hu8evr4kqVK-26" value="" style="shape=umlActor;verticalLabelPosition=bottom;verticalAlign=top;html=1;outlineConnect=0;fontSize=19;fillColor=#FFFF33;" vertex="1" parent="1">
          <mxGeometry x="451" y="116" width="10" height="20" as="geometry" />
        </mxCell>
        <mxCell id="q0zf_KYt9hu8evr4kqVK-27" value="&lt;span style=&quot;&quot;&gt;section about&lt;/span&gt;" style="rounded=0;whiteSpace=wrap;html=1;fontSize=19;fillColor=#A680B8;fontColor=#ffffff;strokeColor=#B20000;" vertex="1" parent="1">
          <mxGeometry x="120" y="280" width="600" height="70" as="geometry" />
        </mxCell>
        <mxCell id="q0zf_KYt9hu8evr4kqVK-28" value="&lt;span style=&quot;&quot;&gt;section gallery-left&lt;/span&gt;" style="rounded=0;whiteSpace=wrap;html=1;fontSize=19;fillColor=#647687;fontColor=#ffffff;strokeColor=#314354;" vertex="1" parent="1">
          <mxGeometry x="120" y="350" width="240" height="90" as="geometry" />
        </mxCell>
        <mxCell id="q0zf_KYt9hu8evr4kqVK-29" value="&lt;span style=&quot;&quot;&gt;section gallery-right&lt;/span&gt;" style="rounded=0;whiteSpace=wrap;html=1;fontSize=19;fillColor=#647687;fontColor=#ffffff;strokeColor=#314354;" vertex="1" parent="1">
          <mxGeometry x="360" y="350" width="360" height="90" as="geometry" />
        </mxCell>
        <mxCell id="q0zf_KYt9hu8evr4kqVK-30" value="section gallery&amp;nbsp;" style="rounded=0;whiteSpace=wrap;html=1;fontSize=19;fillColor=#b1ddf0;strokeColor=#10739e;" vertex="1" parent="1">
          <mxGeometry x="120" y="440" width="600" height="160" as="geometry" />
        </mxCell>
        <mxCell id="q0zf_KYt9hu8evr4kqVK-31" value="&lt;span style=&quot;&quot;&gt;section events&lt;/span&gt;" style="rounded=0;whiteSpace=wrap;html=1;fontSize=19;fillColor=#A680B8;" vertex="1" parent="1">
          <mxGeometry x="120" y="600" width="600" height="60" as="geometry" />
        </mxCell>
        <mxCell id="q0zf_KYt9hu8evr4kqVK-32" value="&lt;span style=&quot;&quot;&gt;section &amp;nbsp;project&lt;/span&gt;" style="rounded=0;whiteSpace=wrap;html=1;fontSize=19;fillColor=#e1d5e7;strokeColor=#9673a6;" vertex="1" parent="1">
          <mxGeometry x="120" y="660" width="390" height="60" as="geometry" />
        </mxCell>
        <mxCell id="q0zf_KYt9hu8evr4kqVK-33" value="&lt;span style=&quot;&quot;&gt;section &amp;nbsp;project&lt;/span&gt;" style="rounded=0;whiteSpace=wrap;html=1;fontSize=19;fillColor=#e1d5e7;strokeColor=#9673a6;" vertex="1" parent="1">
          <mxGeometry x="510" y="660" width="210" height="60" as="geometry" />
        </mxCell>
        <mxCell id="q0zf_KYt9hu8evr4kqVK-35" value="section partners" style="rounded=0;whiteSpace=wrap;html=1;fontSize=19;fillColor=#A680B8;" vertex="1" parent="1">
          <mxGeometry x="120" y="720" width="600" height="70" as="geometry" />
        </mxCell>
        <mxCell id="q0zf_KYt9hu8evr4kqVK-36" value="section contacts" style="rounded=0;whiteSpace=wrap;html=1;fontSize=19;fillColor=#d80073;fontColor=#ffffff;strokeColor=#A50040;" vertex="1" parent="1">
          <mxGeometry x="120" y="790" width="100" height="60" as="geometry" />
        </mxCell>
        <mxCell id="q0zf_KYt9hu8evr4kqVK-37" value="section contacts" style="rounded=0;whiteSpace=wrap;html=1;fontSize=19;fillColor=#d80073;fontColor=#ffffff;strokeColor=#A50040;" vertex="1" parent="1">
          <mxGeometry x="221" y="790" width="130" height="60" as="geometry" />
        </mxCell>
        <mxCell id="q0zf_KYt9hu8evr4kqVK-38" value="section contacts" style="rounded=0;whiteSpace=wrap;html=1;fontSize=19;fillColor=#d80073;fontColor=#ffffff;strokeColor=#A50040;" vertex="1" parent="1">
          <mxGeometry x="350" y="790" width="130" height="60" as="geometry" />
        </mxCell>
        <mxCell id="q0zf_KYt9hu8evr4kqVK-39" value="section contacts" style="rounded=0;whiteSpace=wrap;html=1;fontSize=19;fillColor=#d80073;fontColor=#ffffff;strokeColor=#A50040;" vertex="1" parent="1">
          <mxGeometry x="475" y="790" width="130" height="60" as="geometry" />
        </mxCell>
        <mxCell id="q0zf_KYt9hu8evr4kqVK-40" value="section contacts" style="rounded=0;whiteSpace=wrap;html=1;fontSize=19;fillColor=#d80073;fontColor=#ffffff;strokeColor=#A50040;" vertex="1" parent="1">
          <mxGeometry x="605" y="790" width="115" height="60" as="geometry" />
        </mxCell>
        <mxCell id="q0zf_KYt9hu8evr4kqVK-41" value="section map" style="rounded=0;whiteSpace=wrap;html=1;fontSize=19;fillColor=#1ba1e2;fontColor=#ffffff;strokeColor=#006EAF;" vertex="1" parent="1">
          <mxGeometry x="120" y="850" width="600" height="60" as="geometry" />
        </mxCell>
        <mxCell id="q0zf_KYt9hu8evr4kqVK-42" value="footer" style="rounded=0;whiteSpace=wrap;html=1;fontSize=19;fillColor=#A680B8;" vertex="1" parent="1">
          <mxGeometry x="120" y="910" width="320" height="60" as="geometry" />
        </mxCell>
        <mxCell id="q0zf_KYt9hu8evr4kqVK-43" value="footer" style="rounded=0;whiteSpace=wrap;html=1;fontSize=19;fillColor=#A680B8;" vertex="1" parent="1">
          <mxGeometry x="440" y="910" width="280" height="60" as="geometry" />
        </mxCell>
      </root>
    </mxGraphModel>
  </diagram>
</mxfile>
